<svg width="29" height="20" viewBox="0 0 29 20" fill="none" xmlns="http://www.w3.org/2000/svg">
<path fill-rule="evenodd" clip-rule="evenodd" d="M7.74193 3.87097C7.74193 6.00884 6.00884 7.74194 3.87097 7.74194C1.73309 7.74194 0 6.00884 0 3.87097C0 1.73309 1.73309 0 3.87097 0C6.00884 0 7.74193 1.73309 7.74193 3.87097ZM11.2903 5.44404V2.25806H28.0645V5.44404H11.2903ZM11.2903 17.7419V14.5559H28.0645V17.7419H11.2903ZM3.87097 20C6.00884 20 7.74193 18.2669 7.74193 16.129C7.74193 13.9912 6.00884 12.2581 3.87097 12.2581C1.73309 12.2581 0 13.9912 0 16.129C0 18.2669 1.73309 20 3.87097 20Z" fill="black"/>
</svg>
