<svg width="30" height="24" viewBox="0 0 30 24" fill="none" xmlns="http://www.w3.org/2000/svg">
<path d="M12 8.36923L21.6615 2.30769H2.33846L12 8.36923ZM12 10.7077L2.30769 4.61539V16.8308H14.9782L12.75 19.1385H2.30769C1.67307 19.1385 0 19.1385 0 19.1385C0 19.1385 0 17.4654 0 16.8308V2.30769C0 1.67307 0 0 0 0C0 0 1.67307 0 2.30769 0H21.6923C22.3269 0 24 0 24 0C24 0 24 1.67307 24 2.30769V7.83077L21.6923 10.1385V4.61539L12 10.7077Z" fill="#1C1B1F"/>
<path d="M28.4669 9.67526C28.2086 9.41705 27.9017 9.21247 27.5638 9.07333C27.2258 8.9342 26.8636 8.86327 26.498 8.86464C26.132 8.86463 25.7696 8.93689 25.4317 9.07727C25.0938 9.21765 24.7871 9.42336 24.5292 9.68256L22.2676 11.9537C21.9081 12.3144 21.6545 12.7665 21.5345 13.261C21.4145 13.7554 21.4327 14.2732 21.587 14.758L21.6529 14.9625L22.7653 13.8452V13.794C22.7906 13.444 22.9413 13.1148 23.1898 12.8666L25.4368 10.6027C25.5742 10.4646 25.7376 10.3549 25.9175 10.2798C26.0975 10.2047 26.2905 10.1657 26.4855 10.165C26.6806 10.1643 26.8739 10.202 27.0543 10.2758C27.2348 10.3497 27.3989 10.4583 27.5373 10.5954C27.6757 10.7326 27.7857 10.8955 27.861 11.0751C27.9363 11.2546 27.9754 11.4472 27.976 11.6419C27.9767 11.8365 27.939 12.0293 27.865 12.2094C27.7909 12.3895 27.6821 12.5532 27.5447 12.6913L25.2831 14.9625C25.0354 15.2132 24.7053 15.3662 24.3536 15.3934H24.3023L23.1898 16.5107L23.3948 16.5764C23.882 16.7286 24.4017 16.7443 24.8973 16.622C25.3929 16.4997 25.8453 16.2439 26.2053 15.8826L28.4669 13.6115C28.9884 13.0887 29.2813 12.381 29.2813 11.6434C29.2813 10.9057 28.9884 10.1981 28.4669 9.67526ZM21.9163 17.796L20.8038 18.9133V18.9644C20.7786 19.3144 20.6279 19.6437 20.3793 19.8919L18.1178 22.1558C17.8363 22.4347 17.4553 22.5906 17.0587 22.5892C16.662 22.5878 16.2821 22.4293 16.0026 22.1485C15.7231 21.8676 15.5668 21.4875 15.5682 21.0917C15.5695 20.6959 15.7284 20.3169 16.0099 20.0379L18.2715 17.7668C18.5191 17.5161 18.8492 17.3631 19.201 17.3359H19.2522L20.3647 16.2186L20.1598 16.1529C19.6736 16.0021 19.1553 15.9871 18.6612 16.1094C18.167 16.2317 17.7158 16.4867 17.3566 16.8466L15.095 19.1178C14.7058 19.5073 14.441 20.0032 14.3342 20.5429C14.2273 21.0825 14.2831 21.6416 14.4946 22.1496C14.7061 22.6576 15.0637 23.0916 15.5223 23.3969C15.9809 23.7021 16.5199 23.8649 17.0712 23.8646C17.4372 23.8646 17.7996 23.7924 18.1375 23.652C18.4754 23.5116 18.7821 23.3059 19.04 23.0467L21.3015 20.7755C21.6618 20.4153 21.9158 19.9632 22.0359 19.4686C22.1559 18.974 22.1373 18.456 21.9822 17.9713L21.9163 17.796ZM24.4341 12.8447L18.3373 18.9571L18.2422 19.0521L19.1278 19.9284L25.2245 13.816L25.3124 13.721L24.4341 12.8447Z" fill="black"/>
</svg>
