<svg width="27" height="20" viewBox="0 0 27 20" fill="none" xmlns="http://www.w3.org/2000/svg">
<path d="M11.671 12.2375H3.66684V20.0007H0V1.56171H3.67732V8.8954H11.6815V1.56171H15.3588V20.0007H11.692L11.671 12.2375ZM22.2734 2.11698C21.994 2.11087 21.7161 2.16074 21.4563 2.26365C21.2344 2.35705 21.0372 2.50048 20.88 2.68272C20.7261 2.86687 20.612 3.0809 20.5448 3.31132C20.4711 3.56301 20.4358 3.82437 20.44 4.0866L18.0828 3.87706C18.0741 3.30865 18.1847 2.74474 18.4075 2.22174C18.6126 1.75679 18.9165 1.34208 19.2981 1.00645C19.6937 0.669743 20.1534 0.416703 20.6496 0.262603C21.187 0.0859121 21.7496 -0.00253936 22.3153 0.000685932C22.903 -0.0089603 23.4878 0.0831988 24.044 0.27308C24.5388 0.443338 24.9946 0.710455 25.385 1.05883C25.7545 1.39417 26.0475 1.80508 26.2441 2.26365C26.4549 2.75322 26.562 3.28118 26.5584 3.8142C26.5629 4.40681 26.4377 4.99323 26.1917 5.53238C25.9434 6.07436 25.615 6.57587 25.2174 7.02007C24.7911 7.48812 24.3131 7.90637 23.7926 8.26679C23.2707 8.65062 22.7248 9.00057 22.1582 9.31446L21.9487 9.42971H26.6946V11.525H18.3971V9.42971C18.8231 9.19922 19.2596 8.95127 19.7067 8.68586C20.1537 8.42045 20.5867 8.14457 21.0058 7.8582C21.4248 7.57184 21.8229 7.27151 22.2001 6.95721C22.5543 6.66704 22.8805 6.34435 23.1744 5.99335C23.4396 5.67474 23.6616 5.32246 23.8345 4.94568C23.9872 4.61718 24.0693 4.26025 24.0754 3.89801C24.0738 3.67997 24.0349 3.46381 23.9602 3.25894C23.8861 3.05355 23.7722 2.86484 23.6249 2.70367C23.4696 2.53639 23.2803 2.40423 23.0697 2.31603C22.8216 2.1933 22.5501 2.12541 22.2734 2.11698Z" fill="black"/>
</svg>
