<svg width="20" height="20" viewBox="0 0 20 20" fill="none" xmlns="http://www.w3.org/2000/svg">
<path d="M18.8723 1.08084C18.5288 0.736571 18.1204 0.463795 17.6708 0.278281C17.2213 0.0927666 16.7394 -0.00180718 16.253 2.61526e-05C15.7661 4.65894e-06 15.2839 0.0963556 14.8344 0.283526C14.3848 0.470695 13.9768 0.744983 13.6337 1.09058L10.625 4.11882C10.1466 4.59972 9.80931 5.20256 9.64966 5.86179C9.49 6.52101 9.51413 7.21139 9.71943 7.85786L9.80706 8.1305L11.2871 6.64073V6.57257C11.3207 6.10591 11.5212 5.66693 11.8519 5.33596L14.8411 2.31746C15.024 2.13332 15.2413 1.98701 15.4807 1.88687C15.7201 1.78673 15.9769 1.73472 16.2364 1.73382C16.4959 1.73291 16.753 1.78313 16.9931 1.8816C17.2332 1.98007 17.4516 2.12486 17.6357 2.30772C17.8198 2.49057 17.9661 2.7079 18.0663 2.9473C18.1664 3.1867 18.2184 3.44348 18.2193 3.70298C18.2202 3.96247 18.17 4.21961 18.0715 4.4597C17.9731 4.69979 17.8283 4.91813 17.6454 5.10227L14.6367 8.1305C14.3072 8.46476 13.868 8.66877 13.4001 8.70499H13.3319L11.8519 10.1948L12.1245 10.2824C12.7727 10.4853 13.4641 10.5063 14.1235 10.3432C14.7828 10.1801 15.3847 9.83906 15.8635 9.35738L18.8723 6.32914C19.5662 5.63208 19.9558 4.68855 19.9558 3.70499C19.9558 2.72143 19.5662 1.77791 18.8723 1.08084ZM10.1576 11.9085L8.67756 13.3983V13.4664C8.64397 13.9331 8.44349 14.3721 8.11281 14.703L5.10404 17.7215C4.72959 18.0934 4.22275 18.3013 3.69502 18.2995C3.16729 18.2976 2.6619 18.0863 2.29002 17.7118C1.91815 17.3374 1.71026 16.8305 1.71209 16.3028C1.71392 15.775 1.92531 15.2697 2.29976 14.8978L5.30852 11.8695C5.63803 11.5353 6.07717 11.3313 6.54513 11.2951H6.61329L8.09333 9.80528L7.8207 9.71765C7.17386 9.5167 6.48436 9.49668 5.82696 9.65974C5.16955 9.82281 4.56933 10.1627 4.09139 10.6427L1.08262 13.6709C0.564808 14.1903 0.212558 14.8515 0.0703794 15.571C-0.0717989 16.2905 0.00247438 17.036 0.283816 17.7133C0.565157 18.3906 1.04094 18.9693 1.65105 19.3763C2.26117 19.7833 2.97823 20.0004 3.71164 20C4.19859 20 4.68073 19.9037 5.13027 19.7165C5.57981 19.5294 5.98787 19.2551 6.33092 18.9095L9.33968 15.8812C9.81894 15.4009 10.1569 14.7981 10.3166 14.1387C10.4763 13.4792 10.4516 12.7885 10.2452 12.1422L10.1576 11.9085ZM13.5072 5.30674L5.39616 13.4567L5.26958 13.5833L6.44776 14.7517L14.5588 6.60178L14.6756 6.4752L13.5072 5.30674Z" fill="black"/>
</svg>
