<svg width="26" height="20" viewBox="0 0 26 20" fill="none" xmlns="http://www.w3.org/2000/svg">
<path d="M9.64745 5.82661V2.80242H25.3229V5.82661H9.64745ZM9.64745 17.5202V14.496H25.3229V17.5202H9.64745ZM3.9418 0V6.98589H5.716V8.53831H0.42366V6.98589H2.18777V2.90322H0.413579V1.34073H1.00834C1.21889 1.34521 1.42909 1.32148 1.63334 1.27016C1.77468 1.23503 1.90369 1.16181 2.00632 1.05847C2.09874 0.956291 2.16148 0.830805 2.18777 0.695564C2.20597 0.517938 2.20597 0.338917 2.18777 0.16129V0.0100799L3.9418 0ZM2.98414 13.3165C2.78707 13.3141 2.59156 13.3518 2.40955 13.4274C2.25007 13.4946 2.10852 13.5982 1.99624 13.7298C1.88601 13.8595 1.80365 14.0105 1.7543 14.1734C1.69981 14.3531 1.67262 14.54 1.67366 14.7278L0.000272713 14.5766C-0.00526876 14.1716 0.0736962 13.7699 0.232127 13.3972C0.375534 13.0665 0.588739 12.7708 0.857127 12.5302C1.13084 12.2914 1.4496 12.1097 1.79463 11.996C2.17532 11.8719 2.57368 11.8106 2.97406 11.8145C3.38925 11.8107 3.80196 11.8789 4.19382 12.0161C4.54337 12.1362 4.8655 12.3246 5.1414 12.5706C5.40638 12.8119 5.61613 13.1076 5.75632 13.4375C5.90565 13.788 5.98115 14.1654 5.9781 14.5464C5.9813 14.9705 5.89185 15.3902 5.716 15.7762C5.53839 16.1618 5.30393 16.5186 5.02043 16.8347C4.71874 17.1672 4.38059 17.4648 4.01237 17.7218C3.64178 17.9881 3.25457 18.2306 2.8531 18.4476L2.70188 18.5282H6.06882V20H0.232127V18.5383L1.15955 18.004C1.47541 17.8159 1.78119 17.6176 2.07689 17.4093C2.37258 17.2009 2.65484 16.9859 2.92366 16.7641C3.17676 16.5545 3.40964 16.3217 3.61922 16.0685C3.80505 15.8444 3.96093 15.597 4.08293 15.3327C4.1966 15.0862 4.25508 14.8178 4.2543 14.5464C4.25321 14.3917 4.22594 14.2383 4.17366 14.0927C4.12366 13.9444 4.04487 13.8074 3.9418 13.6895C3.83249 13.5684 3.69841 13.4721 3.54866 13.4073C3.36904 13.3374 3.17662 13.3065 2.98414 13.3165Z" fill="black"/>
</svg>
