<svg width="18" height="17" viewBox="0 0 18 17" fill="none" xmlns="http://www.w3.org/2000/svg">
<path d="M6.6375 16.875C4.81875 16.875 3.25781 16.2844 1.95469 15.1031C0.651563 13.9219 0 12.45 0 10.6875C0 8.925 0.651563 7.45312 1.95469 6.27187C3.25781 5.09062 4.81875 4.5 6.6375 4.5H13.725L10.8 1.575L12.375 0L18 5.625L12.375 11.25L10.8 9.675L13.725 6.75H6.6375C5.45625 6.75 4.42969 7.125 3.55781 7.875C2.68594 8.625 2.25 9.5625 2.25 10.6875C2.25 11.8125 2.68594 12.75 3.55781 13.5C4.42969 14.25 5.45625 14.625 6.6375 14.625H14.625V16.875H6.6375Z" fill="black"/>
</svg>
