<svg width="24" height="24" viewBox="0 0 24 24" fill="none" xmlns="http://www.w3.org/2000/svg">
<path fill-rule="evenodd" clip-rule="evenodd" d="M12 24C18.6274 24 24 18.6274 24 12C24 5.37258 18.6274 0 12 0C5.37258 0 0 5.37258 0 12C0 18.6274 5.37258 24 12 24ZM12.9587 15.8182V6L10.4935 6.01417V6.22668C10.5191 6.47632 10.5191 6.72793 10.4935 6.97757C10.4566 7.16764 10.3684 7.344 10.2385 7.4876C10.0942 7.63284 9.91294 7.73575 9.71429 7.78512C9.42723 7.85725 9.1318 7.8906 8.83589 7.8843H8V10.0803H10.4935V15.8182H8.01417V18H15.4522V15.8182H12.9587Z" fill="black"/>
</svg>
