<svg width="18" height="17" viewBox="0 0 18 17" fill="none" xmlns="http://www.w3.org/2000/svg">
<path d="M3.375 16.875V14.625H11.3625C12.5437 14.625 13.5703 14.25 14.4422 13.5C15.3141 12.75 15.75 11.8125 15.75 10.6875C15.75 9.5625 15.3141 8.625 14.4422 7.875C13.5703 7.125 12.5437 6.75 11.3625 6.75H4.275L7.2 9.675L5.625 11.25L0 5.625L5.625 0L7.2 1.575L4.275 4.5H11.3625C13.1812 4.5 14.7422 5.09062 16.0453 6.27187C17.3484 7.45312 18 8.925 18 10.6875C18 12.45 17.3484 13.9219 16.0453 15.1031C14.7422 16.2844 13.1812 16.875 11.3625 16.875H3.375Z" fill="black"/>
</svg>
